PathFileType	4	(X/Y/Z)	/Users/niels/Desktop/University/Third Semester/Perception and Action/Exam/Gymnastics Motion Tracking/Code for Gym Tracking/Scripts/Analyzed Data/Start Salto/st_salto_bad_id11_2_Sports2D/st_salto_bad_id11_2_Sports2D_px_person00.trc
DataRate	CameraRate	NumFrames	NumMarkers	Units	OrigDataRate	OrigDataStartFrame	OrigNumFrames
29.83695652173913	29.83695652173913	6	22	m	29.83695652173913	23	184
Frame#	Time	Hip			RHip			RKnee			RAnkle			RBigToe			RSmallToe			RHeel			LHip			LKnee			LAnkle			LBigToe			LSmallToe			LHeel			Neck			Head			Nose			RShoulder			RElbow			RWrist			LShoulder			LElbow			LWrist		
		X1	Y1	Z1	X2	Y2	Z2	X3	Y3	Z3	X4	Y4	Z4	X5	Y5	Z5	X6	Y6	Z6	X7	Y7	Z7	X8	Y8	Z8	X9	Y9	Z9	X10	Y10	Z10	X11	Y11	Z11	X12	Y12	Z12	X13	Y13	Z13	X14	Y14	Z14	X15	Y15	Z15	X16	Y16	Z16	X17	Y17	Z17	X18	Y18	Z18	X19	Y19	Z19	X20	Y20	Z20	X21	Y21	Z21	X22	Y22	Z22
23	0.7708561020036431	-0.0013782189167220588	-0.51992510580362	0.0	0.004738666612809337	-0.5204921340754065	0.0	0.04586584037731088	-0.5944431066205935	0.0	-0.0026037938779162138	-0.7179168168337666	0.0	0.025557083357342966	-0.7583892562796509	0.0	0.01828991586908095	-0.7537118057014894	0.0	0.0020191084889187127	-0.7307645775526856	0.0	-5.269037413758818e-05	-0.5238194065889256	0.0	0.04511768278023424	-0.5935190983881281	0.0	-0.005741698977788386	-0.7113663597943636	0.0	0.020563384333959243	-0.7541505427887015	0.0	0.022200764506997605	-0.7493690806463217	0.0	-0.01110451482202729	-0.7309817791211578	0.0	-0.01952742611235979	-0.33109633736113125	0.0	-0.0010426931746645002	-0.26206318540934886	0.0	0.002791092697951029	-0.29681041339011605	0.0	-0.002626457460946581	-0.36178362573508727	0.0	-0.0020985638005763772	-0.41023099359132037	0.0	0.006758378932873381	-0.458876732127712	0.0	-0.013572676998516425	-0.3780758916183493	0.0	-0.017689659853708458	-0.41130787631671445	0.0	0.007693922026504397	-0.4596136075353696	0.0
24	0.8043715846994537	-0.0014508750731821293	-0.5199893411085976	0.0	0.00473748859971899	-0.5205022008619186	0.0	0.045674253548705246	-0.5944182713680729	0.0	-0.0029963662553598807	-0.7178006423516458	0.0	0.02518566017180568	-0.7584000829513711	0.0	0.017773593421840837	-0.7538303929172501	0.0	0.0016490942827929983	-0.730542335389481	0.0	-0.00020209396635910328	-0.5238081759400154	0.0	0.04479519304577035	-0.5935342950672723	0.0	-0.006123666448194318	-0.711335192408207	0.0	0.020086043067501717	-0.7541615565363501	0.0	0.021714731301157645	-0.7493969030244966	0.0	-0.011443591838246428	-0.7309438003946637	0.0	-0.01963303958104388	-0.33113939119677815	0.0	-0.0010800916573890406	-0.2621533058895026	0.0	0.0025924609861575736	-0.29686245524007604	0.0	-0.002620735248580792	-0.36185761909251446	0.0	-0.002333636146502441	-0.4103014513324412	0.0	0.0061121810420764885	-0.45898836310497354	0.0	-0.01378408771004775	-0.37829649268615356	0.0	-0.018019930627501523	-0.4113336869901464	0.0	0.007191024667412432	-0.4597583438065597	0.0
25	0.8378870673952642	-0.001871191848038071	-0.519554115009376	0.0	0.00467024441443072	-0.5201286359399196	0.0	0.045849572508497395	-0.5942318039125082	0.0	-0.003181485532405838	-0.7175461329463029	0.0	0.025114735093731966	-0.7583213291297087	0.0	0.01744348360556253	-0.7538309578935832	0.0	0.0011227180344974834	-0.7301521638343033	0.0	-0.0005683640976673014	-0.5233345427838302	0.0	0.04469988182902575	-0.5934944952951672	0.0	-0.0063514077857283495	-0.7112878043696197	0.0	0.01992318473160536	-0.7542131734779434	0.0	0.02152246193579718	-0.7494349450966776	0.0	-0.011786886432625814	-0.7307375906011045	0.0	-0.01982586278516343	-0.3312055571586555	0.0	-0.0011990845474566729	-0.2622923190364148	0.0	0.0022718620735601896	-0.29692523360290024	0.0	-0.0026312040472163435	-0.36197928867782225	0.0	-0.002550651106785561	-0.41044735946278	0.0	0.005696270637144571	-0.4589323543527743	0.0	-0.014029389031343046	-0.3785296186040755	0.0	-0.018309328959295865	-0.411356432551961	0.0	0.006945192320748693	-0.4598073515783774	0.0
26	0.8714025500910748	-0.0028589732034671046	-0.5181934365304771	0.0	0.004486909902276792	-0.519069908912686	0.0	0.04679911578347839	-0.593775668533148	0.0	-0.002743055414958271	-0.7171228671287653	0.0	0.025818117070684134	-0.7580770453022095	0.0	0.017780239480971197	-0.7535452481013456	0.0	0.0005616165665177265	-0.7296102174900041	0.0	-0.0012205806292121934	-0.5220503355123204	0.0	0.045217202675253886	-0.5933474826795532	0.0	-0.006056681305638931	-0.7112320966928368	0.0	0.020628601971254813	-0.7543294119092251	0.0	0.022167500790358924	-0.7494728784977991	0.0	-0.011916009023307797	-0.7302586315857115	0.0	-0.020103913293182733	-0.3312844632696321	0.0	-0.001437959762616717	-0.26245890956484497	0.0	0.0018653554243253984	-0.29697298679673567	0.0	-0.0026740523432811237	-0.3621369251952966	0.0	-0.0025820742468529384	-0.41068067349902065	0.0	0.006110078161010873	-0.4585068523929782	0.0	-0.014196452134476682	-0.3786407066212458	0.0	-0.01831055443157546	-0.4113568857000166	0.0	0.007482776915830548	-0.4595924266751339	0.0
27	0.9049180327868853	-0.004575773861314226	-0.5154802617812738	0.0	0.004142183553826039	-0.5170434162065064	0.0	0.04900354157549523	-0.5929644158851275	0.0	-0.0010806675846308734	-0.716567454619338	0.0	0.02793748135513187	-0.757591441973202	0.0	0.019512343279221415	-0.7527527955048582	0.0	0.00028314916212294404	-0.729054835556319	0.0	-0.0021391832931327306	-0.5196419370929451	0.0	0.046880468662370584	-0.5930368424549015	0.0	-0.004688934764776731	-0.7111926473547227	0.0	0.022976307240422336	-0.7545262166681751	0.0	0.024419275501968974	-0.7494857540915962	0.0	-0.011441907198859834	-0.7294320092467367	0.0	-0.020406681271417898	-0.3313426563207515	0.0	-0.0018111095374982308	-0.2625834162993836	0.0	0.001516446257560865	-0.29695312884711994	0.0	-0.002767331944210811	-0.3622786540086624	0.0	-0.002143367311868329	-0.41097322387821045	0.0	0.008263374903598316	-0.45746438624550007	0.0	-0.014064787305729888	-0.3783835504456883	0.0	-0.017612888428825985	-0.4113030399239226	0.0	0.00956678303711414	-0.4588786146475299	0.0
28	0.9384335154826959	-0.00693644379992922	-0.5112641265544463	0.0	0.003631814931687208	-0.5139971231924569	0.0	0.0528069968717717	-0.5918231640534148	0.0	0.002460129657960404	-0.7160549569628847	0.0	0.03210173383351125	-0.7568386558624942	0.0	0.023492475628379122	-0.7512507468752155	0.0	0.0008713703688321445	-0.7288299227221776	0.0	-0.0031026689112402914	-0.5160844286652724	0.0	0.05023258685659713	-0.5925328640172528	0.0	-0.0016158334144353657	-0.7112183687970068	0.0	0.027767868411312773	-0.75478955278777	0.0	0.02909148545904268	-0.749429511943892	0.0	-0.009816400574517156	-0.7283034908418479	0.0	-0.02057142721283518	-0.3313126356323118	0.0	-0.0022656322499150557	-0.26252459443791404	0.0	0.0015351241757206935	-0.2967824646748117	0.0	-0.00292180922670354	-0.3622892081171516	0.0	-0.0008525374906144327	-0.4112180517656267	0.0	0.01322306662605323	-0.4556087332517564	0.0	-0.013295523241041161	-0.3774024192829016	0.0	-0.015678196038121876	-0.41115285198724516	0.0	0.014034773900582952	-0.45742283460801964	0.0
